<?xml version="1.0" standalone="no"?>
<!DOCTYPE svg PUBLIC "-//W3C//DTD SVG 20010904//EN"
 "http://www.w3.org/TR/2001/REC-SVG-20010904/DTD/svg10.dtd">
<svg version="1.0" xmlns="http://www.w3.org/2000/svg"
 width="350.000000pt" height="250.000000pt" viewBox="0 0 350.000000 250.000000"
 preserveAspectRatio="xMidYMid meet">

<g transform="translate(0.000000,250.000000) scale(0.100000,-0.100000)"
fill="#000000" stroke="none">
<path d="M1340 2286 c0 -4 20 -36 45 -70 64 -91 119 -207 148 -314 14 -52 27
-95 29 -97 2 -2 28 3 58 11 56 14 171 17 225 5 23 -5 6 -10 -69 -19 -55 -7
-140 -26 -190 -43 -110 -37 -398 -182 -509 -257 -99 -67 -160 -86 -226 -71
-25 5 -57 17 -71 26 -14 9 -97 89 -185 178 -141 144 -169 167 -235 199 -65 31
-196 63 -208 51 -2 -2 7 -32 21 -67 15 -37 30 -105 37 -163 24 -208 118 -388
235 -451 19 -10 35 -21 35 -24 0 -3 -20 -16 -45 -29 -60 -32 -131 -109 -162
-178 -22 -47 -27 -76 -32 -182 -6 -111 -10 -132 -33 -173 -15 -27 -23 -48 -18
-48 30 0 164 32 209 50 87 34 189 108 291 211 117 118 143 133 223 126 48 -4
70 -13 114 -44 178 -126 338 -230 403 -263 88 -44 216 -86 292 -96 29 -4 60
-10 68 -14 24 -13 -96 -23 -197 -17 -87 6 -93 5 -108 -16 -8 -12 -15 -31 -15
-42 0 -34 -44 -117 -95 -178 -33 -41 -44 -62 -37 -69 18 -18 235 6 326 37 148
49 265 117 371 217 l51 47 139 20 c348 52 615 159 866 347 54 41 119 100 145
132 26 31 68 78 92 103 24 26 42 54 40 62 -1 9 -47 64 -102 122 -82 89 -123
123 -248 205 -227 151 -482 265 -636 285 -51 7 -57 11 -140 97 -230 238 -514
378 -799 395 -57 3 -103 3 -103 -1z m1545 -921 c70 -69 -30 -170 -102 -103
-14 13 -23 33 -23 50 0 36 40 78 75 78 14 0 37 -11 50 -25z"/>
</g>
</svg>
